<?xml version="1.0" encoding="utf-8"?>
<!-- Designed by Vexels.com - 2016 All Rights Reserved - https://vexels.com/terms-and-conditions/  -->

<svg version="1.1" id="Capa_1" xmlns="http://www.w3.org/2000/svg" xmlns:xlink="http://www.w3.org/1999/xlink" x="0px" y="0px"
	 width="1200px" height="1200px" viewBox="0 0 1200 1200" enable-background="new 0 0 1200 1200" xml:space="preserve">
<g>
	<g>
		<g id="Capa_1_1_">
			<path fill="#eff0eb" d="M196.599,978.236c204.074,197.799,551.54,238.664,773.668,49.146
				c118.98-101.506,177.182-263.102,178.687-416.478c1.685-170.987-80.554-333.318-211.659-440.95
				C837.581,88.09,712.775,42.108,583.219,51.118c-118.87,8.268-229.135,61.943-319.122,138.199
				C81.675,343.886-7.257,606.236,92.606,830.709C117.182,885.918,154.447,935.28,196.599,978.236
				c25.577,26.063,65.542-13.949,39.984-39.99C146.915,846.875,99.189,729.633,106.89,601.314
				c7.067-117.595,63.416-230.21,140.924-317.117c78.771-88.312,184.201-151.488,301.095-172.35
				c128.167-22.865,256.45,22.613,355.291,103.762c231.996,190.472,255.584,568.639,26.075,771.787
				c-195.044,172.648-515.768,123.314-693.691-49.145C210.399,912.867,170.381,952.824,196.599,978.236z"/>
			<g>
				<path fill="#eff0eb" d="M381.788,485.436c0.245,0.247,0.464,0.513,0.668,0.799c-1.472-1.908-2.944-3.816-4.416-5.726
					c0.272,0.422,0.483,0.824,0.694,1.288c-0.947-2.256-1.895-4.511-2.854-6.761c0.219,0.6,0.368,1.186,0.457,1.812
					c-0.335-2.508-0.668-5.016-1.017-7.518c0.185,1.718-0.048,3.381-0.23,5.085c-0.873,8.008,3.135,16.615,8.601,22.19
					c7.239,7.359,20.058,10.979,29.905,6.958c7.147-2.931,14.824-6.435,20.391-12.003c6.904-6.896,9.542-17.868,9.943-27.402
					c0.477-11.117-5.849-21.326-14.986-27.153c-4.935-3.147-11.886-4.784-17.692-4.34c-1.86,0.135-3.682,0.428-5.555,0.238
					c2.508,0.333,5.009,0.674,7.518,1.009c-0.635-0.096-1.228-0.245-1.848-0.464c2.255,0.954,4.513,1.901,6.761,2.854
					c-0.464-0.197-0.872-0.422-1.295-0.694c1.908,1.472,3.815,2.942,5.725,4.417c-0.286-0.205-0.553-0.424-0.798-0.668
					c-11.333-10.429-28.76-11.238-39.984,0c-10.556,10.557-11.34,29.551,0,39.983c7.251,6.673,15.123,9.631,24.863,10.183
					c2.193,0.13,4.36-0.497,6.549-0.333c-2.508-0.334-5.016-0.676-7.517-1.01c0.325,0.047,0.626,0.109,0.947,0.219
					c-2.256-0.947-4.505-1.896-6.754-2.85c0.176,0.068,0.36,0.163,0.524,0.286c-1.908-1.471-3.811-2.951-5.726-4.423
					c0.164,0.123,0.301,0.266,0.424,0.43c-1.474-1.909-2.945-3.81-4.417-5.725c0.136,0.184,0.231,0.375,0.306,0.578
					c-0.947-2.255-1.895-4.498-2.842-6.752c0.089,0.252,0.15,0.504,0.185,0.763c-0.334-2.508-0.668-5.016-1.009-7.517
					c0.074,0.722,0.04,1.424-0.027,2.152c0.334-2.507,0.668-5.009,1.009-7.517c-0.307,2.134-0.914,4.177-1.573,6.222
					c4.333-5.636,8.654-11.266,12.988-16.895c-2.548,1.683-5.117,3.44-7.911,4.723c2.256-0.947,4.512-1.901,6.754-2.854
					c-0.505,0.211-0.996,0.382-1.534,0.482c2.508-0.34,5.009-0.682,7.517-1.015c-0.17,0.021-0.334,0.021-0.504-0.007
					c2.507,0.333,5.009,0.667,7.517,1.015c-0.062-0.021-0.122-0.047-0.19-0.068c2.249,0.954,4.505,1.902,6.76,2.856
					c-0.062-0.034-0.108-0.062-0.164-0.096c1.908,1.472,3.816,2.943,5.725,4.416c-0.041-0.041-0.088-0.082-0.137-0.131
					c1.473,1.903,2.943,3.817,4.431,5.72c-0.041-0.056-0.068-0.109-0.104-0.157c0.948,2.249,1.902,4.504,2.85,6.753
					c-0.055-0.129-0.096-0.272-0.115-0.409c0.334,2.501,0.675,5.01,1.009,7.511c-0.191-1.704,0.313-3.481,0.34-5.192
					c0.164-9.617-3.775-18.279-10.188-25.244c-10.44-11.341-29.436-10.563-39.984,0
					C370.551,456.677,371.353,474.104,381.788,485.436L381.788,485.436z"/>
				<path fill="#eff0eb" d="M735.912,485.436c0.239,0.247,0.465,0.513,0.668,0.799c-1.472-1.908-2.942-3.816-4.416-5.726
					c0.272,0.422,0.484,0.824,0.695,1.288c-0.947-2.256-1.9-4.511-2.854-6.761c0.218,0.6,0.36,1.186,0.456,1.812
					c-0.334-2.508-0.675-5.016-1.017-7.518c0.186,1.718-0.048,3.381-0.238,5.085c-0.872,8.008,3.144,16.615,8.607,22.19
					c7.238,7.359,20.059,10.979,29.905,6.958c7.143-2.931,14.824-6.435,20.392-12.003c6.903-6.896,9.54-17.868,9.943-27.402
					c0.477-11.117-5.849-21.326-14.986-27.153c-4.935-3.147-11.887-4.784-17.692-4.34c-1.867,0.135-3.681,0.428-5.555,0.238
					c2.501,0.333,5.009,0.674,7.519,1.009c-0.643-0.096-1.233-0.245-1.849-0.464c2.256,0.954,4.512,1.901,6.754,2.854
					c-0.456-0.197-0.872-0.422-1.287-0.694c1.907,1.472,3.815,2.942,5.725,4.417c-0.286-0.205-0.553-0.424-0.797-0.668
					c-11.334-10.429-28.761-11.238-39.992,0c-10.55,10.557-11.34,29.551,0,39.983c7.252,6.673,15.124,9.631,24.869,10.183
					c2.193,0.13,4.36-0.497,6.55-0.333c-2.509-0.334-5.017-0.676-7.519-1.01c0.327,0.047,0.627,0.109,0.947,0.219
					c-2.256-0.947-4.512-1.896-6.754-2.85c0.178,0.068,0.361,0.163,0.52,0.286c-1.901-1.471-3.812-2.951-5.719-4.423
					c0.156,0.123,0.299,0.266,0.422,0.43c-1.472-1.909-2.942-3.81-4.417-5.725c0.138,0.184,0.232,0.375,0.309,0.578
					c-0.947-2.255-1.896-4.498-2.851-6.752c0.097,0.252,0.157,0.504,0.191,0.763c-0.333-2.508-0.668-5.016-1.008-7.517
					c0.073,0.722,0.039,1.424-0.035,2.152c0.341-2.507,0.676-5.009,1.016-7.517c-0.306,2.134-0.914,4.177-1.581,6.222
					c4.334-5.636,8.662-11.266,12.996-16.895c-2.555,1.683-5.116,3.44-7.912,4.723c2.257-0.947,4.506-1.901,6.755-2.854
					c-0.513,0.211-0.995,0.382-1.533,0.482c2.509-0.34,5.01-0.682,7.518-1.015c-0.171,0.021-0.334,0.021-0.505-0.007
					c2.508,0.333,5.009,0.667,7.518,1.015c-0.062-0.021-0.13-0.047-0.19-0.068c2.25,0.954,4.506,1.902,6.754,2.856
					c-0.055-0.034-0.103-0.062-0.156-0.096c1.901,1.472,3.816,2.943,5.726,4.416c-0.049-0.041-0.09-0.082-0.137-0.131
					c1.473,1.903,2.943,3.817,4.423,5.72c-0.033-0.056-0.062-0.109-0.096-0.157c0.947,2.249,1.901,4.504,2.85,6.753
					c-0.056-0.129-0.104-0.272-0.123-0.409c0.341,2.501,0.682,5.01,1.017,7.511c-0.19-1.704,0.313-3.481,0.339-5.192
					c0.165-9.617-3.773-18.279-10.187-25.244c-10.441-11.341-29.437-10.563-39.992,0
					C724.676,456.677,725.486,474.104,735.912,485.436L735.912,485.436z"/>
			</g>
			<path fill="#eff0eb" d="M347.664,828.821c55.756-79.474,162.135-108.205,254.528-108.431
				c92.612-0.231,185.517,42.303,242.042,116.221c21.829,28.555,70.993,0.435,48.831-28.542
				c-70.518-92.225-175.417-141.17-290.873-144.231c-113.098-3.012-236.883,41.683-303.358,136.44
				C277.837,830.218,326.899,858.433,347.664,828.821L347.664,828.821z"/>
		</g>
	</g>
	<g id="Capa_2">
	</g>
	<g id="Capa_3">
	</g>
</g>
</svg>
